<svg id="Capa_1" enable-background="new 0 0 479.058 479.058" height="512" viewBox="0 0 479.058 479.058" width="512" xmlns="http://www.w3.org/2000/svg"><path d="m194.617 479.058c-57.777 0-104.794-47.017-104.794-104.794v-224.558c0-82.543 67.163-149.706 149.706-149.706s149.706 67.163 149.706 149.706l-.029 269.47h-29.941l.029-269.47c0-66.037-53.727-119.764-119.764-119.764s-119.766 53.726-119.766 119.764v224.558c0 41.271 33.581 74.853 74.853 74.853s74.853-33.581 74.853-74.853v-224.558c0-16.506-13.435-29.941-29.941-29.941s-29.941 13.435-29.941 29.941v239.529h-29.941v-239.529c0-33.026 26.856-59.882 59.882-59.882s59.882 26.856 59.882 59.882v224.558c0 57.777-47.017 104.794-104.794 104.794z"/></svg>