<?xml version="1.0" ?><svg enable-background="new 0 0 32 32" version="1.1" viewBox="0 0 32 32" xml:space="preserve" xmlns="http://www.w3.org/2000/svg" xmlns:xlink="http://www.w3.org/1999/xlink"><g id="Outline_Thin_copy"><g><path d="M0.001,4.531c-0.024,5.852,9.039,5.362,9.339-0.193C9.34,4.324,9.33,4.316,9.328,4.303C9.33,4.288,9.341,4.275,9.34,4.26    C9.029-1.518,0.024-1.097,0.001,4.531z M4.15,8.106C2.391,7.716,1.184,6.06,1.183,4.299C1.181,2.032,3.209,0.076,5.543,0.843    c1.64,0.539,2.535,2.037,2.634,3.696C8.044,6.606,6.47,8.62,4.15,8.106z"/><path d="M11.322,4.463c-0.047,5.937,9.045,5.632,9.354-0.096C20.359-1.493,11.368-1.344,11.322,4.463z M19.503,4.463    c-0.108,1.997-1.548,3.844-3.746,3.608c-1.835-0.197-3.254-1.883-3.263-3.704c-0.009-1.914,1.439-3.554,3.375-3.607    C17.936,0.703,19.399,2.529,19.503,4.463z"/><path d="M31.987,4.302c0.001-0.015,0.011-0.027,0.01-0.042c-0.313-5.815-9.334-5.424-9.342,0.264    C22.647,10.412,31.697,9.968,32,4.353C32.001,4.332,31.989,4.32,31.987,4.302z M26.796,8.068c-1.754-0.35-2.958-2.026-2.956-3.761    c0.004-2.277,2.054-4.163,4.367-3.43c1.629,0.516,2.514,1.996,2.622,3.632C30.702,6.607,29.092,8.525,26.796,8.068z"/><path d="M0.002,16.161c-0.034,5.835,9.038,5.315,9.335-0.205c0.001-0.011-0.008-0.017-0.01-0.028    C9.33,15.913,9.341,15.9,9.34,15.885C9.03,10.125,0.034,10.565,0.002,16.161z M3.845,19.665c-1.603-0.543-2.66-2.069-2.663-3.745    c-0.005-2.286,2.122-4.359,4.512-3.426c1.557,0.607,2.394,2.076,2.486,3.686c-0.044,0.714-0.186,1.339-0.55,1.961    C6.908,19.373,5.241,20.137,3.845,19.665z"/><path d="M11.33,16.161c-0.034,5.835,9.038,5.315,9.335-0.205c0.001-0.011-0.008-0.017-0.01-0.028    c0.003-0.014,0.014-0.027,0.013-0.042C20.358,10.125,11.362,10.565,11.33,16.161z M15.173,19.665    c-1.603-0.543-2.66-2.069-2.663-3.745c-0.005-2.286,2.122-4.359,4.512-3.426c1.557,0.607,2.394,2.076,2.486,3.686    c-0.044,0.714-0.186,1.339-0.55,1.961C18.236,19.373,16.569,20.137,15.173,19.665z"/><path d="M22.656,16.196c-0.024,5.827,9.048,5.12,9.34-0.311C31.687,10.133,22.68,10.687,22.656,16.196z M30.173,18.386    c-0.849,1.281-3.053,1.753-4.364,0.992c-1.221-0.709-2.003-2.081-1.993-3.493c0.005-0.691,0.19-1.42,0.55-2.014    c0.563-0.932,0.902-0.958,2.052-1.262c1.093-0.289,1.348-0.463,2.239-0.003c1.388,0.716,2.099,2.073,2.181,3.59    C30.795,16.978,30.609,17.727,30.173,18.386z"/><path d="M9.34,27.51C9.029,21.729-0.031,22.224,0,27.821C0.032,33.681,9.043,33.027,9.34,27.51z M5.693,24.115    c1.565,0.613,2.401,2.088,2.489,3.706c-0.126,2.342-2.248,4.451-4.732,3.318c-1.394-0.636-2.295-2.107-2.29-3.628    C1.167,25.226,3.377,23.208,5.693,24.115z"/><path d="M11.329,27.783c-0.027,5.852,9.039,5.342,9.338-0.196c0.001-0.014-0.009-0.021-0.01-0.033    c0.002-0.015,0.013-0.028,0.012-0.043C20.357,21.733,11.355,22.169,11.329,27.783z M15.48,31.363    c-1.762-0.394-2.968-2.051-2.97-3.815c-0.002-2.243,2.028-4.273,4.359-3.46c1.638,0.571,2.537,2.023,2.637,3.707    C19.372,29.858,17.796,31.882,15.48,31.363z"/><path d="M22.657,27.783c-0.027,5.851,9.039,5.339,9.337-0.197c0.001-0.013-0.009-0.021-0.01-0.033    c0.002-0.015,0.013-0.027,0.012-0.043C31.686,21.734,22.684,22.172,22.657,27.783z M26.809,31.365    c-1.763-0.395-2.968-2.053-2.97-3.817c-0.003-2.243,2.027-4.275,4.359-3.461c1.638,0.571,2.538,2.024,2.637,3.708    C30.7,29.858,29.125,31.884,26.809,31.365z"/></g></g></svg>